<svg width="2466" height="607" viewBox="0 0 2466 607" fill="none" xmlns="http://www.w3.org/2000/svg">
<path d="M1116.49 167.359V453.703H1056.92V167.359H1116.49Z" fill="#464646" style="fill:#464646;fill:color(display-p3 0.2740 0.2740 0.2740);fill-opacity:1;"/>
<path d="M1165.32 453.703V167.359H1224.88V275.017H1226.7C1229.31 269.238 1233.08 263.366 1238.02 257.401C1243.06 251.342 1249.58 246.308 1257.6 242.3C1265.71 238.199 1275.77 236.148 1287.8 236.148C1303.46 236.148 1317.9 240.25 1331.14 248.452C1344.38 256.562 1354.96 268.819 1362.88 285.224C1370.8 301.536 1374.76 321.996 1374.76 346.604C1374.76 370.559 1370.89 390.786 1363.16 407.284C1355.52 423.689 1345.08 436.133 1331.84 444.615C1318.7 453.004 1303.97 457.199 1287.66 457.199C1276.1 457.199 1266.27 455.288 1258.16 451.466C1250.14 447.644 1243.57 442.844 1238.44 437.065C1233.32 431.193 1229.4 425.274 1226.7 419.308H1224.04V453.703H1165.32ZM1223.62 346.324C1223.62 359.094 1225.39 370.233 1228.93 379.74C1232.48 389.248 1237.6 396.658 1244.31 401.971C1251.03 407.191 1259.18 409.801 1268.78 409.801C1278.48 409.801 1286.68 407.144 1293.39 401.831C1300.1 396.425 1305.18 388.968 1308.63 379.46C1312.17 369.86 1313.94 358.814 1313.94 346.324C1313.94 333.927 1312.22 323.021 1308.77 313.607C1305.32 304.192 1300.24 296.829 1293.53 291.516C1286.82 286.203 1278.57 283.546 1268.78 283.546C1259.09 283.546 1250.89 286.11 1244.17 291.236C1237.56 296.363 1232.48 303.633 1228.93 313.048C1225.39 322.462 1223.62 333.554 1223.62 346.324Z" fill="#464646" style="fill:#464646;fill:color(display-p3 0.2740 0.2740 0.2740);fill-opacity:1;"/>
<path d="M1414.51 453.703V238.945H1474.07V453.703H1414.51ZM1444.43 211.261C1435.57 211.261 1427.98 208.325 1421.64 202.453C1415.39 196.487 1412.27 189.356 1412.27 181.061C1412.27 172.858 1415.39 165.821 1421.64 159.948C1427.98 153.983 1435.57 151 1444.43 151C1453.28 151 1460.83 153.983 1467.08 159.948C1473.42 165.821 1476.58 172.858 1476.58 181.061C1476.58 189.356 1473.42 196.487 1467.08 202.453C1460.83 208.325 1453.28 211.261 1444.43 211.261Z" fill="#464646" style="fill:#464646;fill:color(display-p3 0.2740 0.2740 0.2740);fill-opacity:1;"/>
<path d="M1618.81 457.898C1597.1 457.898 1578.31 453.284 1562.47 444.056C1546.71 434.735 1534.55 421.778 1525.97 405.187C1517.4 388.502 1513.11 369.161 1513.11 347.163C1513.11 324.979 1517.4 305.591 1525.97 288.999C1534.55 272.314 1546.71 259.358 1562.47 250.13C1578.31 240.809 1597.1 236.148 1618.81 236.148C1640.53 236.148 1659.27 240.809 1675.02 250.13C1690.87 259.358 1703.08 272.314 1711.65 288.999C1720.23 305.591 1724.51 324.979 1724.51 347.163C1724.51 369.161 1720.23 388.502 1711.65 405.187C1703.08 421.778 1690.87 434.735 1675.02 444.056C1659.27 453.284 1640.53 457.898 1618.81 457.898ZM1619.09 411.758C1628.97 411.758 1637.22 408.962 1643.84 403.369C1650.46 397.683 1655.45 389.947 1658.8 380.16C1662.25 370.372 1663.97 359.234 1663.97 346.743C1663.97 334.253 1662.25 323.114 1658.8 313.327C1655.45 303.54 1650.46 295.803 1643.84 290.118C1637.22 284.432 1628.97 281.589 1619.09 281.589C1609.12 281.589 1600.73 284.432 1593.93 290.118C1587.21 295.803 1582.13 303.54 1578.69 313.327C1575.33 323.114 1573.65 334.253 1573.65 346.743C1573.65 359.234 1575.33 370.372 1578.69 380.16C1582.13 389.947 1587.21 397.683 1593.93 403.369C1600.73 408.962 1609.12 411.758 1619.09 411.758Z" fill="#464646" style="fill:#464646;fill:color(display-p3 0.2740 0.2740 0.2740);fill-opacity:1;"/>
<path d="M1822.81 329.546V453.703H1763.24V238.945H1820.01V276.835H1822.53C1827.28 264.345 1835.25 254.464 1846.43 247.194C1857.62 239.83 1871.18 236.148 1887.12 236.148C1902.04 236.148 1915.04 239.411 1926.13 245.936C1937.22 252.46 1945.84 261.781 1952 273.899C1958.15 285.923 1961.22 300.278 1961.22 316.962V453.703H1901.66V327.588C1901.76 314.446 1898.4 304.192 1891.6 296.829C1884.79 289.372 1875.42 285.643 1863.49 285.643C1855.48 285.643 1848.39 287.368 1842.24 290.817C1836.18 294.266 1831.43 299.299 1827.98 305.917C1824.62 312.442 1822.9 320.318 1822.81 329.546Z" fill="#464646" style="fill:#464646;fill:color(display-p3 0.2740 0.2740 0.2740);fill-opacity:1;"/>
<path d="M2022.43 453.703V167.359H2048.57V321.576H2051.09L2190.91 167.359H2225.3L2102.96 299.765L2224.74 453.703H2192.87L2086.74 317.941L2048.57 360.725V453.703H2022.43Z" fill="#464646" style="fill:#464646;fill:color(display-p3 0.2740 0.2740 0.2740);fill-opacity:1;"/>
<path d="M2283.22 453.703V238.945H2308.25V453.703H2283.22ZM2295.95 202.033C2290.82 202.033 2286.44 200.309 2282.8 196.86C2279.17 193.318 2277.35 189.077 2277.35 184.137C2277.35 179.196 2279.17 175.002 2282.8 171.553C2286.44 168.011 2290.82 166.24 2295.95 166.24C2301.07 166.24 2305.45 168.011 2309.09 171.553C2312.72 175.002 2314.54 179.196 2314.54 184.137C2314.54 189.077 2312.72 193.318 2309.09 196.86C2305.45 200.309 2301.07 202.033 2295.95 202.033Z" fill="#464646" style="fill:#464646;fill:color(display-p3 0.2740 0.2740 0.2740);fill-opacity:1;"/>
<path fill-rule="evenodd" clip-rule="evenodd" d="M812.875 453.703H748L846.85 167.359H924.868L1023.58 453.703H958.704L937.504 388.409H834.116L812.875 453.703ZM884.741 232.793H886.978L922.16 341.151H849.49L884.741 232.793Z" fill="#464646" style="fill:#464646;fill:color(display-p3 0.2740 0.2740 0.2740);fill-opacity:1;"/>
<path d="M2458.66 238.945V260.616H2413.22V397.637C2413.22 406.585 2414.75 413.622 2417.83 418.749C2420.91 423.782 2424.91 427.371 2429.85 429.515C2434.8 431.566 2440.06 432.591 2445.65 432.591C2448.92 432.591 2451.71 432.404 2454.04 432.032C2456.37 431.566 2458.42 431.099 2460.2 430.633L2465.51 453.144C2463.08 454.076 2460.1 454.915 2456.56 455.661C2453.02 456.499 2448.64 456.919 2443.42 456.919C2434.28 456.919 2425.47 454.915 2416.99 450.907C2408.6 446.899 2401.71 440.933 2396.3 433.01C2390.89 425.087 2388.19 415.254 2388.19 403.509V260.616H2356.17V238.945H2388.19V187.492H2413.22V238.945H2458.66Z" fill="#464646" style="fill:#464646;fill:color(display-p3 0.2740 0.2740 0.2740);fill-opacity:1;"/>
<path d="M37.6654 37.6035C11.0319 64.1931 -15.6015 143.962 11.0319 170.552C37.6654 197.141 90.9323 143.962 197.466 197.141C144.199 90.7828 197.466 37.6035 170.833 11.0138C144.199 -15.5759 64.2989 11.0138 37.6654 37.6035ZM11.0319 436.448C-15.6015 463.038 11.0319 542.807 37.6654 569.397C64.2989 595.986 144.199 622.576 170.833 595.986C197.466 569.397 144.199 516.217 197.466 409.859C90.9323 463.038 37.6654 409.859 11.0319 436.448ZM437.167 11.0138C410.534 37.6035 463.801 90.7828 410.534 197.141C517.068 143.962 570.335 197.141 596.968 170.552C623.602 143.962 596.968 64.1931 570.335 37.6035C543.701 11.0138 463.801 -15.5759 437.167 11.0138ZM226.457 221.444C215.462 231.8 206.66 244.253 200.573 258.066C194.485 271.879 191.235 286.77 191.015 301.859C190.795 316.948 193.61 331.928 199.293 345.912C204.976 359.895 213.411 372.598 224.1 383.269C245.291 404.425 274.032 416.31 304 416.31C333.968 416.31 362.709 404.425 383.9 383.269C405.091 362.113 416.996 333.419 416.996 303.5C416.996 273.581 405.091 244.887 383.9 223.731C363.112 202.977 335.04 191.128 305.643 190.701C276.247 190.274 247.841 201.302 226.457 221.444ZM410.534 409.859C463.801 516.217 410.534 569.397 437.167 595.986C463.801 622.576 543.701 595.986 570.335 569.397C596.968 542.807 623.602 463.038 596.968 436.448C570.335 409.859 517.068 463.038 410.534 409.859Z" fill="#D97706" style="fill:#D97706;fill:color(display-p3 0.8510 0.4667 0.0235);fill-opacity:1;"/>
</svg>
