<svg width="1718" height="307" viewBox="0 0 1718 307" fill="none" xmlns="http://www.w3.org/2000/svg">
<path d="M368.487 16.3586V302.703H308.925V16.3586H368.487Z" fill="#464646" style="fill:#464646;fill:color(display-p3 0.2740 0.2740 0.2740);fill-opacity:1;"/>
<path d="M417.318 302.703V16.3586H476.88V124.017H478.697C481.307 118.238 485.082 112.366 490.023 106.401C495.056 100.342 501.581 95.3084 509.597 91.3003C517.706 87.199 527.773 85.1484 539.797 85.1484C555.457 85.1484 569.904 89.2497 583.14 97.4522C596.376 105.562 606.956 117.819 614.879 134.224C622.802 150.536 626.763 170.996 626.763 195.604C626.763 219.559 622.895 239.786 615.158 256.284C607.515 272.689 597.076 285.133 583.84 293.615C570.697 302.004 555.969 306.199 539.657 306.199C528.099 306.199 518.265 304.288 510.156 300.466C502.14 296.644 495.569 291.844 490.442 286.065C485.315 280.193 481.4 274.274 478.697 268.308H476.041V302.703H417.318ZM475.621 195.324C475.621 208.094 477.392 219.233 480.934 228.74C484.476 238.248 489.603 245.658 496.314 250.971C503.025 256.191 511.181 258.801 520.782 258.801C530.476 258.801 538.679 256.144 545.39 250.831C552.101 245.425 557.181 237.968 560.63 228.46C564.172 218.86 565.943 207.814 565.943 195.324C565.943 182.927 564.219 172.021 560.77 162.607C557.321 153.192 552.241 145.829 545.53 140.516C538.819 135.203 530.569 132.546 520.782 132.546C511.088 132.546 502.886 135.11 496.174 140.236C489.556 145.363 484.476 152.633 480.934 162.048C477.392 171.462 475.621 182.554 475.621 195.324Z" fill="#464646" style="fill:#464646;fill:color(display-p3 0.2740 0.2740 0.2740);fill-opacity:1;"/>
<path d="M666.506 302.703V87.9447H726.068V302.703H666.506ZM696.427 60.261C687.572 60.261 679.975 57.3248 673.637 51.4525C667.392 45.487 664.269 38.3564 664.269 30.0606C664.269 21.858 667.392 14.8206 673.637 8.94828C679.975 2.98276 687.572 0 696.427 0C705.282 0 712.832 2.98276 719.077 8.94828C725.416 14.8206 728.585 21.858 728.585 30.0606C728.585 38.3564 725.416 45.487 719.077 51.4525C712.832 57.3248 705.282 60.261 696.427 60.261Z" fill="#464646" style="fill:#464646;fill:color(display-p3 0.2740 0.2740 0.2740);fill-opacity:1;"/>
<path d="M870.813 306.898C849.095 306.898 830.313 302.284 814.467 293.056C798.714 283.735 786.55 270.778 777.975 254.187C769.4 237.502 765.112 218.161 765.112 196.163C765.112 173.979 769.4 154.591 777.975 137.999C786.55 121.314 798.714 108.358 814.467 99.13C830.313 89.8089 849.095 85.1484 870.813 85.1484C892.531 85.1484 911.267 89.8089 927.02 99.13C942.865 108.358 955.076 121.314 963.652 137.999C972.227 154.591 976.515 173.979 976.515 196.163C976.515 218.161 972.227 237.502 963.652 254.187C955.076 270.778 942.865 283.735 927.02 293.056C911.267 302.284 892.531 306.898 870.813 306.898ZM871.093 260.758C880.973 260.758 889.222 257.962 895.84 252.369C902.458 246.683 907.445 238.947 910.801 229.16C914.25 219.372 915.974 208.234 915.974 195.743C915.974 183.253 914.25 172.114 910.801 162.327C907.445 152.54 902.458 144.803 895.84 139.118C889.222 133.432 880.973 130.589 871.093 130.589C861.119 130.589 852.73 133.432 845.926 139.118C839.215 144.803 834.135 152.54 830.686 162.327C827.33 172.114 825.652 183.253 825.652 195.743C825.652 208.234 827.33 219.372 830.686 229.16C834.135 238.947 839.215 246.683 845.926 252.369C852.73 257.962 861.119 260.758 871.093 260.758Z" fill="#464646" style="fill:#464646;fill:color(display-p3 0.2740 0.2740 0.2740);fill-opacity:1;"/>
<path d="M1074.81 178.546V302.703H1015.24V87.9447H1072.01V125.835H1074.53C1079.28 113.345 1087.25 103.464 1098.43 96.1939C1109.62 88.8302 1123.18 85.1484 1139.12 85.1484C1154.04 85.1484 1167.04 88.4108 1178.13 94.9355C1189.22 101.46 1197.84 110.781 1204 122.899C1210.15 134.923 1213.22 149.278 1213.22 165.962V302.703H1153.66V176.588C1153.76 163.446 1150.4 153.192 1143.6 145.829C1136.79 138.372 1127.42 134.643 1115.49 134.643C1107.48 134.643 1100.39 136.368 1094.24 139.817C1088.18 143.266 1083.43 148.299 1079.98 154.917C1076.62 161.442 1074.9 169.318 1074.81 178.546Z" fill="#464646" style="fill:#464646;fill:color(display-p3 0.2740 0.2740 0.2740);fill-opacity:1;"/>
<path d="M1274.43 302.703V16.3586H1300.57V170.576H1303.09L1442.91 16.3586H1477.3L1354.96 148.765L1476.74 302.703H1444.87L1338.74 166.941L1300.57 209.725V302.703H1274.43Z" fill="#464646" style="fill:#464646;fill:color(display-p3 0.2740 0.2740 0.2740);fill-opacity:1;"/>
<path d="M1535.22 302.703V87.9447H1560.25V302.703H1535.22ZM1547.95 51.0331C1542.82 51.0331 1538.44 49.3087 1534.8 45.8599C1531.17 42.3179 1529.35 38.0768 1529.35 33.1366C1529.35 28.1964 1531.17 24.0019 1534.8 20.5531C1538.44 17.011 1542.82 15.24 1547.95 15.24C1553.07 15.24 1557.45 17.011 1561.09 20.5531C1564.72 24.0019 1566.54 28.1964 1566.54 33.1366C1566.54 38.0768 1564.72 42.3179 1561.09 45.8599C1557.45 49.3087 1553.07 51.0331 1547.95 51.0331Z" fill="#464646" style="fill:#464646;fill:color(display-p3 0.2740 0.2740 0.2740);fill-opacity:1;"/>
<path fill-rule="evenodd" clip-rule="evenodd" d="M64.8749 302.703H0L98.8504 16.3586H176.868L275.579 302.703H210.704L189.504 237.409H86.1163L64.8749 302.703ZM136.741 81.7928H138.978L174.16 190.151H101.49L136.741 81.7928Z" fill="#464646" style="fill:#464646;fill:color(display-p3 0.2740 0.2740 0.2740);fill-opacity:1;"/>
<path d="M1710.66 87.9447V109.616H1665.22V246.637C1665.22 255.585 1666.75 262.622 1669.83 267.749C1672.91 272.782 1676.91 276.371 1681.85 278.515C1686.8 280.566 1692.06 281.591 1697.65 281.591C1700.92 281.591 1703.71 281.404 1706.04 281.032C1708.37 280.566 1710.42 280.099 1712.2 279.633L1717.51 302.144C1715.08 303.076 1712.1 303.915 1708.56 304.661C1705.02 305.499 1700.64 305.919 1695.42 305.919C1686.28 305.919 1677.47 303.915 1668.99 299.907C1660.6 295.899 1653.71 289.933 1648.3 282.01C1642.89 274.087 1640.19 264.254 1640.19 252.509V109.616H1608.17V87.9447H1640.19V36.4922H1665.22V87.9447H1710.66Z" fill="#464646" style="fill:#464646;fill:color(display-p3 0.2740 0.2740 0.2740);fill-opacity:1;"/>
</svg>
